<svg width="149" height="31" viewBox="0 0 149 31" fill="none" xmlns="http://www.w3.org/2000/svg">
<path d="M28.9454 28.7441C27.4531 28.7239 25.9769 28.4408 24.588 27.9082C23.1733 27.3817 21.8599 26.6262 20.7031 25.6735L23.573 21.5965C24.424 22.2845 25.3657 22.8582 26.373 23.3024C27.2374 23.6799 28.1731 23.8775 29.1204 23.8823C29.8464 23.9515 30.5749 23.777 31.1853 23.3876C31.4041 23.2342 31.5788 23.0287 31.6928 22.7906C31.7968 22.5474 31.8503 22.2865 31.8503 22.0229C31.849 21.6719 31.7186 21.333 31.4828 21.0677C31.1963 20.755 30.8594 20.4899 30.4853 20.283C30.03 20.0328 29.5562 19.8161 29.0679 19.6347C28.5429 19.4471 28.0179 19.2253 27.4754 19.0035C26.9329 18.7818 26.128 18.4065 25.4805 18.0653C24.8417 17.7025 24.2536 17.2611 23.7305 16.7518C23.1726 16.2271 22.7162 15.6088 22.3831 14.9265C22.017 14.1699 21.8373 13.3404 21.8581 12.5042C21.8517 11.5411 22.0544 10.5877 22.4531 9.70654C22.8444 8.85014 23.4453 8.10039 24.203 7.52302C24.9741 6.91032 25.8512 6.43663 26.7929 6.1242C27.8888 5.77607 29.0353 5.60324 30.1878 5.61244C31.6772 5.58417 33.1541 5.88145 34.5102 6.48243C35.6157 7.05342 36.6542 7.73979 37.6076 8.52948L34.7377 12.3506C34.041 11.7914 33.2698 11.3266 32.4453 10.9689C31.737 10.6506 30.9677 10.4821 30.1878 10.4742C28.5779 10.4742 27.7729 11.0428 27.7729 12.1801C27.7623 12.3463 27.788 12.5129 27.8483 12.6687C27.9087 12.8246 28.0023 12.9662 28.1229 13.0842C28.3879 13.3682 28.7017 13.6049 29.0504 13.7836C29.4862 14.01 29.9362 14.2094 30.3978 14.3806L31.9728 14.9777C32.6553 15.2506 33.3552 15.5577 34.0377 15.8818C34.7121 16.2253 35.336 16.6556 35.8927 17.1612C36.5126 17.7182 37.0021 18.3989 37.3276 19.1571C37.6532 19.9301 37.8082 20.7612 37.7826 21.5965C37.7874 22.5576 37.5909 23.5096 37.2051 24.3941C36.8186 25.2724 36.2179 26.0454 35.4552 26.6459C34.6379 27.3237 33.6928 27.8394 32.6728 28.1641C31.4685 28.544 30.2111 28.7396 28.9454 28.7441V28.7441Z" fill="#111111"/>
<path d="M51.4323 28.744C49.9662 28.7553 48.5112 28.4948 47.1449 27.9764C45.8221 27.4787 44.6274 26.7042 43.645 25.7075C42.6254 24.6653 41.8388 23.428 41.3351 22.074C40.772 20.5068 40.4937 18.8558 40.5126 17.1952C40.4942 15.547 40.7909 13.9099 41.3876 12.3676C41.9335 11.0172 42.7349 9.77886 43.75 8.71704C44.657 7.75422 45.7516 6.97715 46.9699 6.43117C48.1963 5.90233 49.5225 5.62915 50.8636 5.62915C52.2046 5.62915 53.5308 5.90233 54.7572 6.43117C55.8709 6.94573 56.8472 7.70478 57.6096 8.64881C58.4186 9.66203 59.0134 10.8217 59.3595 12.0606C59.7465 13.427 59.935 14.8395 59.9195 16.257C59.9556 16.8251 59.9556 17.3948 59.9195 17.9629C59.89 18.3701 59.8315 18.7747 59.7445 19.174H46.7074C46.8627 20.5476 47.5515 21.8112 48.6324 22.7052C49.6817 23.4807 50.9739 23.8785 52.2898 23.8311C53.9493 23.7937 55.5613 23.2837 56.9271 22.364L59.0445 26.3217C57.9269 27.1065 56.6938 27.7219 55.3872 28.1469C54.1114 28.556 52.7752 28.7577 51.4323 28.744V28.744ZM46.6549 14.79H54.4072C54.4626 13.7245 54.175 12.6689 53.5847 11.7706C53.2575 11.3615 52.8303 11.039 52.3423 10.8323C51.8419 10.6189 51.2914 10.5423 50.7498 10.6106C49.7555 10.6035 48.7967 10.9701 48.0724 11.6341C47.2251 12.492 46.7008 13.6044 46.5849 14.79H46.6549Z" fill="#111111"/>
<path d="M64.748 28.2153V0.000102246H74.4077C75.7796 -0.00381097 77.1494 0.104609 78.5026 0.324218C79.6636 0.498663 80.78 0.886517 81.7925 1.46715C82.7071 1.99153 83.4668 2.73793 83.9974 3.63361C84.5698 4.68118 84.8418 5.85978 84.7849 7.04536C84.7821 7.68949 84.6999 8.33096 84.5399 8.95594C84.3642 9.55062 84.1175 10.1232 83.805 10.6618C83.4914 11.2057 83.1028 11.705 82.65 12.1459C82.2183 12.5709 81.6911 12.8921 81.11 13.0842V13.2718C81.8156 13.4305 82.4896 13.7014 83.105 14.0736C83.7103 14.4385 84.2486 14.8998 84.6974 15.4383C85.1687 16.0107 85.5249 16.6647 85.7474 17.3659C86.0213 18.1864 86.1572 19.0448 86.1499 19.9076C86.1848 21.1974 85.8902 22.4754 85.2924 23.6265C84.741 24.6555 83.9425 25.5392 82.965 26.2023C81.9037 26.9133 80.7174 27.428 79.4651 27.7205C78.0637 28.0643 76.6227 28.2306 75.1777 28.2153H64.748ZM71.1178 11.293H74.1103C75.3159 11.3915 76.5184 11.0712 77.5052 10.3889C77.8605 10.0942 78.1368 9.71941 78.3101 9.29711C78.5023 8.87943 78.5922 8.4239 78.5726 7.96653C78.6129 7.51141 78.5347 7.05373 78.3451 6.63595C78.155 6.23284 77.8592 5.8857 77.4876 5.62948C76.4629 5.09536 75.3046 4.853 74.1453 4.93008H71.1354L71.1178 11.293ZM71.1178 23.2341H74.7227C78.2226 23.2341 79.9726 21.9547 79.9726 19.4129C80.0198 18.8916 79.9232 18.3674 79.6926 17.8947C79.4753 17.4601 79.1506 17.0849 78.7476 16.803C77.5351 16.1907 76.1719 15.9191 74.8102 16.0183H71.1354L71.1178 23.2341Z" fill="#111111"/>
<path d="M94.1469 28.7442C93.6294 28.7572 93.1154 28.6582 92.6419 28.4542C92.1629 28.2477 91.7337 27.9455 91.382 27.5671C91.0191 27.1754 90.7396 26.7173 90.5595 26.2195C90.369 25.7173 90.2741 25.1855 90.2795 24.6501C90.2784 24.1109 90.367 23.5751 90.542 23.0636C90.7342 22.5588 91.0254 22.0952 91.3995 21.6989C91.7533 21.3271 92.1823 21.0309 92.6595 20.8289C93.1232 20.607 93.6305 20.4848 94.1469 20.4707C94.6593 20.4704 95.1661 20.575 95.6344 20.7778C96.1091 20.9839 96.5374 21.2795 96.8943 21.6478C97.2628 22.045 97.5482 22.5086 97.7343 23.0125C97.9263 23.5197 98.0154 24.0585 97.9968 24.5989C98.0314 25.6739 97.6361 26.7198 96.8943 27.516C96.5479 27.9 96.1173 28.2031 95.6344 28.403C95.1675 28.6084 94.6589 28.7075 94.1469 28.693V28.7442Z" fill="#111111"/>
<path d="M12.2496 6.99414V19.9758C12.251 20.8437 11.9131 21.6794 11.3047 22.3129C11.0135 22.6139 10.6622 22.8537 10.2726 23.0176C9.88286 23.1815 9.46291 23.2661 9.03848 23.2661C8.61405 23.2661 8.19411 23.1815 7.80441 23.0176C7.41471 22.8537 7.06349 22.6139 6.7723 22.3129C6.16387 21.6794 5.82595 20.8437 5.82733 19.9758V6.99414H1.20688e-05V19.7541C-0.00389519 22.1803 0.941058 24.5167 2.64243 26.2876C3.45776 27.1399 4.44362 27.8203 5.53918 28.2868C6.63473 28.7533 7.81673 28.996 9.01223 28.9999V28.9999C10.2048 28.9937 11.3834 28.7499 12.4758 28.2834C13.5682 27.817 14.5512 27.1378 15.3645 26.2876C17.0659 24.5167 18.0109 22.1803 18.007 19.7541V6.99414H12.2496Z" fill="#111111"/>
<path d="M117.4 13.424H115.4V24.464H117.4V19.552H119.368V17.792H117.4V13.424ZM109.704 23.664H107.672V28.192H117.8V26.464H109.704V23.664ZM105.48 22.496C110.344 22.496 113.048 22.432 114.808 22.208L114.664 20.496C113.512 20.624 112.104 20.704 110.056 20.736V17.872H108.04V20.768H105.48V22.496ZM106.344 14.16V15.904H111.752V16.544C111.752 17.216 111.672 18.288 111.432 19.392L113.384 19.632C113.624 18.64 113.736 17.152 113.736 16.32V14.16H106.344ZM132.555 13.424H130.523V28.304H132.555V13.424ZM123.067 20.368H127.867V14.576H121.067V16.288H125.867V18.72H121.067V24.768H124.139C126.091 24.768 127.931 24.688 129.435 24.464L129.211 22.768C127.723 22.96 126.075 23.056 124.619 23.056H123.067V20.368ZM135.037 16.448H138.029V18.096C138.029 19.424 137.741 20.096 136.797 21.152C136.109 21.904 135.293 22.704 134.429 23.472L135.757 24.832C136.637 24.016 137.245 23.408 137.837 22.784C138.365 22.24 138.909 21.616 139.053 21.312H139.085C139.197 21.568 139.661 22.096 140.269 22.72C140.861 23.328 141.565 24.032 142.253 24.672L143.549 23.328C142.749 22.608 141.917 21.792 141.229 21.04C140.269 20 140.077 19.344 140.077 18.096V16.448H142.941V14.72H135.037V16.448ZM146.397 13.424H144.365V28.304H146.397V20.528H148.445V18.768H146.397V13.424Z" fill="#455AFF"/>
</svg>
